<svg xmlns="http://www.w3.org/2000/svg" viewBox="0 0 64 64" fill="currentColor">
  <path d="M32,0C14.327,0,0,14.327,0,32s14.327,32,32,32,32-14.327,32-32S49.673,0,32,0Zm4.312,45.291h0c0,2.38-1.929,4.308-4.308,4.308-2.379,0-4.307-1.929-4.307-4.308v-.301c.08-2.296,2.005-4.092,4.301-4.013,.068-.003,.136-.003,.208,.003,2.296,.03,4.134,1.914,4.106,4.211v.101Zm.099-28.365l-2.13,18.602c-.07,1.151-.988,2.069-2.139,2.139-1.258,.077-2.34-.881-2.416-2.139l-2.131-18.602c-.152-1.432,.64-2.526,1.979-2.526h4.842c1.347,0,2.131,1.095,1.996,2.526Z"/></svg>
