<svg xmlns="http://www.w3.org/2000/svg" viewBox="0 0 64 64" fill="currentColor"><path d="M62.662,55.308l-23.308-23.308L62.662,8.692c1.62-1.624,1.62-4.252,0-5.876l-1.54-1.54c-1.624-1.62-4.252-1.62-5.876,0L31.938,24.584,8.631,1.276C7.007-.343,4.379-.343,2.755,1.276l-1.54,1.54C-.405,4.44-.405,7.068,1.215,8.692L24.522,32,1.215,55.308c-1.62,1.624-1.62,4.252,0,5.876l1.54,1.54c1.624,1.62,4.252,1.62,5.876,0l23.308-23.308,23.308,23.308c1.624,1.62,4.252,1.62,5.876,0l1.54-1.54c1.666-1.508,1.793-4.081,.285-5.746-.017-.019-.034-.037-.051-.055-.054-.073-.148-.103-.234-.075Z"/></svg>
