<svg xmlns="http://www.w3.org/2000/svg" viewBox="0 0 64 64" fill="currentColor"><path d="M63.259,52.175h0S36.796,6.294,36.796,6.294c-1.528-2.648-4.912-3.558-7.561-2.03-.842,.487-1.542,1.187-2.03,2.03L.742,52.174c-1.528,2.646-.622,6.033,2.026,7.561,.842,.485,1.797,.742,2.769,.742H58.463c3.056,.002,5.535-2.476,5.537-5.534,0-.973-.256-1.927-.741-2.769Zm-26.034,0c-.156,2.882-2.616,5.093-5.496,4.939-2.667-.142-4.797-2.272-4.939-4.939v-.119c.152-2.882,2.614-5.093,5.496-4.941,2.665,.143,4.795,2.274,4.939,4.941v.119Zm.119-34.351h0s0-.005,0-.007v-.008l-2.59,22.556c-.113,1.524-1.438,2.669-2.963,2.557-1.369-.101-2.458-1.188-2.557-2.557l-2.575-22.541c-.32-1.336,.504-2.677,1.84-2.997,.179-.041,.36-.065,.543-.067h5.92c1.372,.019,2.47,1.149,2.451,2.522-.002,.18-.027,.359-.067,.535v.007Z"/></svg>
